<?xml version="1.0" standalone="no"?>
<!DOCTYPE svg PUBLIC "-//W3C//DTD SVG 20010904//EN"
 "http://www.w3.org/TR/2001/REC-SVG-20010904/DTD/svg10.dtd">
<svg version="1.0" xmlns="http://www.w3.org/2000/svg"
 width="230.000000pt" height="47.000000pt" viewBox="0 0 230.000000 47.000000"
 preserveAspectRatio="xMidYMid meet">

<g transform="translate(0.000000,47.000000) scale(0.100000,-0.100000)"
fill="#000000" stroke="none">
<path d="M10 255 c0 -118 1 -125 20 -125 17 0 20 7 20 50 l0 50 40 0 40 0 0
-50 c0 -43 3 -50 20 -50 19 0 20 7 20 125 0 118 -1 125 -20 125 -17 0 -20 -7
-20 -50 l0 -50 -40 0 -40 0 0 50 c0 43 -3 50 -20 50 -19 0 -20 -7 -20 -125z"/>
<path d="M1073 345 c-6 -17 2 -30 20 -30 8 0 13 -25 15 -68 3 -63 1 -69 -18
-74 -12 -3 -20 -12 -18 -22 3 -13 19 -17 79 -19 65 -2 78 0 93 17 23 25 24 66
2 90 -15 16 -15 19 -1 31 21 17 19 46 -5 70 -16 16 -33 20 -90 20 -54 0 -72
-4 -77 -15z m132 -50 c0 -22 -31 -33 -47 -17 -17 17 -1 44 24 40 15 -2 23 -10
23 -23z m0 -95 c0 -16 -6 -26 -19 -28 -21 -4 -36 13 -36 41 0 14 6 18 28 15
21 -2 27 -8 27 -28z"/>
<path d="M1294 346 c-7 -18 4 -38 17 -31 5 4 9 -25 9 -69 0 -61 -3 -76 -15
-76 -8 0 -15 -9 -15 -20 0 -19 5 -21 57 -18 44 2 59 7 61 19 2 10 -6 19 -18
22 -19 5 -21 11 -18 74 2 52 6 68 18 68 8 0 15 9 15 20 0 17 -8 20 -53 23 -39
2 -54 -1 -58 -12z"/>
<path d="M1424 345 c-7 -17 1 -30 19 -30 8 0 13 -25 15 -68 3 -63 1 -69 -18
-74 -12 -3 -20 -12 -18 -22 3 -13 18 -16 93 -16 l90 0 3 44 c2 24 -1 48 -7 54
-15 15 -41 -10 -38 -36 2 -17 -4 -23 -25 -25 l-28 -3 0 74 c0 65 2 75 18 73
11 -1 17 6 17 19 0 17 -8 20 -58 23 -45 2 -59 0 -63 -13z"/>
<path d="M1655 343 c-37 -36 -47 -121 -20 -173 17 -33 33 -39 98 -38 47 1 47
1 47 35 0 21 6 36 15 39 8 4 15 15 15 25 0 16 -8 19 -49 19 -56 0 -75 -17 -43
-38 24 -16 19 -42 -9 -42 -39 0 -54 90 -21 131 22 26 52 20 52 -10 0 -19 23
-35 34 -24 9 9 7 93 -2 93 -4 0 -13 -5 -19 -11 -8 -8 -13 -8 -17 0 -11 17 -62
13 -81 -6z"/>
<path d="M1824 345 c-7 -17 1 -30 19 -30 8 0 13 -25 15 -68 3 -63 1 -69 -18
-74 -12 -3 -20 -12 -18 -22 3 -13 20 -17 96 -19 l92 -3 0 50 c0 51 -15 75 -31
50 -5 -8 -9 -24 -9 -36 0 -19 -6 -23 -30 -23 -27 0 -30 3 -30 30 0 17 5 30 10
30 6 0 10 -7 10 -16 0 -9 5 -14 11 -12 6 2 10 7 10 11 -1 4 -1 25 -1 47 0 22
-4 40 -10 40 -5 0 -10 -7 -10 -15 0 -8 -4 -15 -10 -15 -5 0 -10 11 -10 25 0
21 5 25 30 25 27 0 30 -3 30 -31 0 -24 4 -30 18 -27 13 3 17 13 17 48 l0 45
-88 3 c-72 2 -88 0 -93 -13z"/>
<path d="M2034 345 c-7 -17 1 -30 19 -30 8 0 13 -25 15 -68 3 -63 1 -69 -18
-74 -12 -3 -20 -12 -18 -22 2 -12 17 -17 56 -19 47 -3 52 -1 52 17 0 12 -7 21
-15 21 -12 0 -15 13 -14 63 l0 62 31 -82 c29 -78 33 -83 59 -83 l29 0 0 83 c0
79 8 110 26 108 5 -1 9 7 9 17 0 14 -9 17 -50 17 -41 0 -50 -3 -50 -17 0 -10
4 -18 9 -17 16 1 26 -26 26 -75 0 -61 -8 -54 -40 37 l-25 72 -48 3 c-36 2 -49
-1 -53 -13z"/>
<path d="M257 302 c-30 -33 -11 -61 25 -38 13 7 21 7 29 -1 14 -14 3 -33 -20
-33 -11 0 -29 -8 -41 -18 -48 -39 3 -102 55 -68 22 15 25 15 25 1 0 -8 7 -15
15 -15 12 0 15 15 15 75 0 62 -4 79 -20 95 -25 25 -62 26 -83 2z m61 -104 c-5
-15 -48 -24 -48 -10 0 14 12 22 33 22 10 0 17 -5 15 -12z"/>
<path d="M430 300 c-34 -34 -24 -61 33 -85 43 -18 50 -45 12 -45 -14 0 -25 5
-25 10 0 13 -11 13 -30 0 -13 -9 -12 -13 9 -30 44 -38 111 -14 111 39 0 32
-11 44 -55 58 -34 11 -47 43 -18 43 11 0 23 -4 29 -10 6 -6 15 -6 24 1 13 8
12 11 -4 24 -27 21 -62 19 -86 -5z"/>
<path d="M617 302 c-30 -33 -11 -61 25 -38 13 7 21 7 29 -1 14 -14 3 -33 -20
-33 -11 0 -29 -8 -41 -18 -48 -39 3 -102 55 -68 22 15 25 15 25 1 0 -8 7 -15
15 -15 12 0 15 15 15 75 0 62 -4 79 -20 95 -25 25 -62 26 -83 2z m61 -104 c-5
-15 -48 -24 -48 -10 0 14 12 22 33 22 10 0 17 -5 15 -12z"/>
<path d="M780 225 c0 -88 2 -95 20 -95 17 0 19 8 22 68 3 59 5 67 23 67 18 0
20 -8 23 -67 3 -60 5 -68 22 -68 18 0 20 7 20 79 0 59 -4 84 -16 95 -19 19
-45 21 -63 4 -11 -10 -14 -10 -18 0 -3 6 -11 12 -19 12 -11 0 -14 -20 -14 -95z"/>
</g>
</svg>
